<svg width="42" height="42" viewBox="0 0 42 42" fill="none" xmlns="http://www.w3.org/2000/svg">
<path d="M35.57 5.18018H6.11091C5.40245 5.18018 4.83008 5.75255 4.83008 6.46101V35.9201C4.83008 36.6286 5.40245 37.201 6.11091 37.201H35.57C36.2785 37.201 36.8509 36.6286 36.8509 35.9201V6.46101C36.8509 5.75255 36.2785 5.18018 35.57 5.18018ZM31.8716 14.5262H29.314C27.3087 14.5262 26.9204 15.4789 26.9204 16.8798V19.9658H31.7075L31.0831 24.7969H26.9204V37.201H21.9292V24.8009H17.7545V19.9658H21.9292V16.4035C21.9292 12.2688 24.4548 10.0153 28.1452 10.0153C29.9144 10.0153 31.4313 10.1474 31.8756 10.2074V14.5262H31.8716Z" fill="#EF2779"/>
</svg>
