<svg width="107" height="89" viewBox="0 0 107 89" fill="none" xmlns="http://www.w3.org/2000/svg">
<g clip-path="url(#clip0_66_4854)">
<path d="M53.6247 0.5C25.2035 0.5 2.93683 36.58 0.830078 67.0536C9.74898 82.4982 31.2566 88.3038 53.6255 88.3038C75.9928 88.3038 97.5016 82.4982 106.416 67.0532C104.309 36.58 82.0451 0.5 53.6251 0.5" fill="#B6DEFF"/>
<path d="M98.9892 59.7947C98.9892 59.7947 92.712 46.2535 86.3317 38.3533C79.9469 30.4498 72.1497 21.844 67.5395 21.844C62.9318 21.844 50.0512 44.5992 44.1421 44.5992C38.2318 44.5992 35.1602 34.2838 27.8939 34.2838C20.6246 34.2838 9.07555 59.1589 9.07555 59.1589L8.29297 63.3759C8.29297 63.3759 12.3052 81.125 54.2804 81.125C96.2572 81.125 99.612 63.6671 99.612 63.6671L98.9896 59.7943" fill="#66CC66"/>
<path d="M44.7989 54.3101C38.2799 54.3101 34.9381 47.8923 33.1261 43.9307C31.4968 40.3619 31.2148 34.7275 26.5918 34.5696C27.046 34.3899 27.4833 34.2837 27.8932 34.2837C35.1596 34.2837 38.2311 44.5992 44.1414 44.5992C50.0505 44.5992 62.9312 21.8435 67.5388 21.8435C68.4071 21.8435 69.3851 22.1492 70.4464 22.6929C69.6613 22.5896 68.6547 22.6615 67.8792 23.4378C66.3898 24.9243 52.8694 54.3101 44.7989 54.3101Z" fill="#17AD49"/>
</g>
<defs>
<clipPath id="clip0_66_4854">
<rect width="106" height="88" fill="white" transform="translate(0.5 0.5)"/>
</clipPath>
</defs>
</svg>
