<svg width="28" height="23" viewBox="0 0 28 23" fill="none" xmlns="http://www.w3.org/2000/svg">
<g clip-path="url(#clip0_67_8042)">
<path d="M25.6719 1.38477H1.29688C0.77832 1.38477 0.359375 1.80371 0.359375 2.32227V21.0723C0.359375 21.5908 0.77832 22.0098 1.29688 22.0098H25.6719C26.1904 22.0098 26.6094 21.5908 26.6094 21.0723V2.32227C26.6094 1.80371 26.1904 1.38477 25.6719 1.38477ZM24.5 4.63086V19.9004H2.46875V4.63086L1.66016 4.00098L2.81152 2.52148L4.06543 3.49707H22.9062L24.1602 2.52148L25.3115 4.00098L24.5 4.63086ZM22.9062 3.49414L13.4844 10.8184L4.0625 3.49414L2.80859 2.51855L1.65723 3.99805L2.46582 4.62793L12.4736 12.4092C12.7614 12.6328 13.1155 12.7542 13.48 12.7542C13.8444 12.7542 14.1985 12.6328 14.4863 12.4092L24.5 4.63086L25.3086 4.00098L24.1572 2.52148L22.9062 3.49414Z" fill="#EF2779"/>
</g>
<defs>
<clipPath id="clip0_67_8042">
<rect width="27" height="22" fill="white" transform="translate(0.359375 0.697266)"/>
</clipPath>
</defs>
</svg>
