<svg width="83" height="89" viewBox="0 0 83 89" fill="none" xmlns="http://www.w3.org/2000/svg">
<g clip-path="url(#clip0_66_4873)">
<path d="M77.1771 71.9491C76.5513 76.5745 73.4216 80.5769 69.0402 82.3556C66.8938 83.244 64.5692 83.5117 62.2439 83.244C60.0087 82.9777 57.7729 82.266 55.4483 80.9332C52.2288 79.1526 49.0096 76.3968 45.2542 72.3054C51.1562 65.1016 54.7321 58.5201 56.074 52.6512C56.7001 49.8938 56.7892 47.4035 56.5214 45.0908C56.1641 42.8677 55.3591 40.8213 54.1066 39.0429C51.3346 35.0412 46.6853 32.7285 41.4987 32.7285C36.3122 32.7285 31.6626 35.1302 28.8905 39.0429C27.6381 40.8217 26.8343 42.8677 26.4761 45.0908C26.1188 47.4035 26.2079 49.9825 26.9235 52.6516C28.2645 58.5198 31.9304 65.1906 37.7433 72.3931C34.0771 76.4855 30.7684 79.2422 27.5489 81.0213C25.2243 82.3556 22.9885 83.0673 20.7533 83.333C18.4491 83.589 16.1168 83.2841 13.9573 82.4446C9.57553 80.6659 6.44649 76.6622 5.8201 72.0378C5.5523 69.815 5.73094 67.5919 6.62513 65.1016C6.89294 64.2116 7.34069 63.3238 7.78713 62.2558C8.41353 60.8334 9.12908 59.3204 9.84365 57.8081L9.93379 57.6314C16.103 44.3791 22.7206 30.8611 29.6061 17.6991L29.8742 17.1644C30.5898 15.8317 31.3043 14.4093 32.0205 13.0746C32.7354 11.6513 33.5402 10.3169 34.5235 9.15991C36.4014 7.0252 38.9053 5.86916 41.6774 5.86916C44.4495 5.86916 46.9531 7.0252 48.831 9.16023C49.8146 10.3169 50.6193 11.6513 51.3349 13.0749C52.0504 14.4093 52.765 15.8317 53.4806 17.1644L53.7497 17.6991C60.545 30.9497 67.1626 44.4678 73.3325 57.72V57.8081C74.048 59.2314 74.6735 60.8334 75.389 62.2558C75.8364 63.3238 76.2832 64.2112 76.551 65.1016C77.2666 67.4136 77.5347 69.638 77.1774 71.9491H77.1771ZM41.4987 67.7687C36.6705 61.7218 33.5402 56.0294 32.4673 51.2282C32.0209 49.1822 31.9304 47.4035 32.1995 45.8024C32.3778 44.3791 32.9151 43.1334 33.6293 42.0654C35.3285 39.6663 38.1898 38.1517 41.4987 38.1517C44.8074 38.1517 47.7581 39.576 49.3675 42.0654C50.0824 43.1334 50.6193 44.3791 50.798 45.8024C51.0661 47.4035 50.9766 49.2709 50.5299 51.2282C49.457 55.9413 46.327 61.6331 41.4987 67.7687ZM81.827 63.1445C81.3802 62.0772 80.9328 60.9215 80.4861 59.9431C79.7705 58.343 79.0549 56.83 78.4289 55.4067L78.3394 55.3187C72.1702 41.9774 65.5525 28.4594 58.5776 15.121L58.3098 14.5857C57.5943 13.2516 56.8787 11.8283 56.1641 10.4056C55.2693 8.80391 54.3748 7.11581 52.9446 5.51381C50.0821 1.95639 45.9697 0 41.5876 0C37.1166 0 33.0931 1.95639 30.1417 5.33677C28.801 6.93716 27.8174 8.62687 26.9232 10.2289C26.2076 11.6513 25.4921 13.0746 24.7768 14.4093L24.5087 14.9414C17.6239 28.2817 10.9171 41.8007 4.74694 55.141L4.65778 55.3187C4.03138 56.741 3.31583 58.2524 2.60028 59.8544C2.12191 60.9085 1.67484 61.9763 1.25964 63.0565C0.0966665 66.3463 -0.260623 69.4597 0.186151 72.6608C1.17048 79.3312 5.64146 84.935 11.8113 87.4244C14.1357 88.4034 16.5501 88.8478 19.0544 88.8478C19.7696 88.8478 20.6638 88.7588 21.3794 88.6691C24.3297 88.3128 27.3699 87.3364 30.3203 85.6457C33.9872 83.6003 37.4749 80.6659 41.4089 76.3968C45.343 80.6659 48.9201 83.6007 52.4969 85.6457C55.4483 87.3364 58.4881 88.3128 61.4389 88.6691C62.1544 88.7588 63.0486 88.8478 63.7638 88.8478C66.2678 88.8478 68.7711 88.4034 71.0069 87.4244C77.2662 84.935 81.6477 79.2426 82.6314 72.6608C83.347 69.5474 82.9887 66.4362 81.8267 63.1442L81.827 63.1445Z" fill="#E0565B"/>
</g>
<defs>
<clipPath id="clip0_66_4873">
<rect width="83" height="89" fill="white"/>
</clipPath>
</defs>
</svg>
