<svg width="27" height="33" viewBox="0 0 27 33" fill="none" xmlns="http://www.w3.org/2000/svg">
<g clip-path="url(#clip0_67_9435)">
<path d="M13.4993 19.5553C16.9922 19.5553 19.8327 16.7148 19.8327 13.222C19.8327 9.72917 16.9922 6.88867 13.4993 6.88867C10.0065 6.88867 7.16602 9.72917 7.16602 13.222C7.16602 16.7148 10.0065 19.5553 13.4993 19.5553ZM13.4993 10.0553C15.2458 10.0553 16.666 11.4756 16.666 13.222C16.666 14.9684 15.2458 16.3887 13.4993 16.3887C11.7529 16.3887 10.3327 14.9684 10.3327 13.222C10.3327 11.4756 11.7529 10.0553 13.4993 10.0553Z" fill="#EF2779"/>
<path d="M12.2485 31.9273C12.5164 32.1187 12.8375 32.2216 13.1668 32.2216C13.4961 32.2216 13.8172 32.1187 14.0851 31.9273C14.5665 31.5869 25.8794 23.4185 25.8335 13.2218C25.8335 6.23776 20.1509 0.555176 13.1668 0.555176C6.18272 0.555176 0.500139 6.23776 0.500139 13.2139C0.454223 23.4185 11.7671 31.5869 12.2485 31.9273ZM13.1668 3.72184C18.4061 3.72184 22.6668 7.98259 22.6668 13.2298C22.7001 20.2566 15.7191 26.5662 13.1668 28.6356C10.6161 26.5646 3.63356 20.2534 3.66681 13.2218C3.66681 7.98259 7.92756 3.72184 13.1668 3.72184Z" fill="#EF2779"/>
</g>
<defs>
<clipPath id="clip0_67_9435">
<rect width="26" height="32" fill="white" transform="translate(0.5 0.388672)"/>
</clipPath>
</defs>
</svg>
