<svg width="87" height="87" viewBox="0 0 87 87" fill="none" xmlns="http://www.w3.org/2000/svg">
<g clip-path="url(#clip0_66_4880)">
<path d="M19.053 0H67.947C78.4699 0 87 8.53008 87 19.053V67.947C87 78.4699 78.4699 87 67.947 87H19.053C8.53008 87 0 78.4699 0 67.947V19.053C0 8.53008 8.53008 0 19.053 0Z" fill="url(#paint0_linear_66_4880)"/>
<path d="M27.8818 63.1463L27.89 63.149L24.9153 68.3011C23.8295 70.1818 21.4248 70.8261 19.5441 69.7403C17.6637 68.6545 17.019 66.2498 18.1048 64.3691L20.2961 60.5737L20.5065 60.2094C20.882 59.6697 21.8088 58.7379 23.6626 58.9132C23.6626 58.9132 28.0252 59.3866 28.3409 61.6541C28.3409 61.6541 28.3838 62.4 27.8818 63.1463ZM70.071 49.9876H60.7953C60.1636 49.9451 59.888 49.7194 59.7792 49.5882L59.7724 49.5764L49.8432 32.3782L49.8303 32.3867L49.2349 31.533C48.2588 30.0404 46.7092 33.8576 46.7092 33.8576C44.8587 38.111 46.9719 42.9467 47.7083 44.4084L61.4998 68.296C62.5853 70.1763 64.99 70.821 66.8711 69.7349C68.7514 68.6491 69.3961 66.2443 68.31 64.3636L64.8616 58.3905C64.7946 58.2458 64.6784 57.8529 65.3856 57.8512H70.071C72.2426 57.8512 74.003 56.0908 74.003 53.9192C74.003 51.7476 72.2426 49.9872 70.071 49.9872V49.9876ZM52.0546 55.3326C52.0546 55.3326 52.5497 57.8512 50.634 57.8512H16.3441C14.1725 57.8512 12.4121 56.0908 12.4121 53.9192C12.4121 51.7476 14.1725 49.9872 16.3441 49.9872H25.1597C26.5829 49.905 26.92 49.0832 26.92 49.0832L26.9282 49.0873L38.4353 29.1562L38.4319 29.1555C38.6416 28.7704 38.4669 28.4065 38.4367 28.349L34.6362 21.7666C33.5504 19.8862 34.1947 17.4812 36.0754 16.3957C37.9561 15.3099 40.3609 15.9539 41.4467 17.8346L43.2091 20.8874L44.9685 17.84C46.0543 15.9597 48.459 15.315 50.3397 16.4011C52.2204 17.4869 52.8647 19.8913 51.7789 21.772L35.7662 49.5067C35.6962 49.6756 35.6748 49.9407 36.1957 49.9872H45.7671L45.7691 50.0807C45.7691 50.0807 51.3011 50.1667 52.0546 55.3326Z" fill="white"/>
</g>
<defs>
<linearGradient id="paint0_linear_66_4880" x1="43.5" y1="0" x2="43.5" y2="87" gradientUnits="userSpaceOnUse">
<stop stop-color="#17C9FB"/>
<stop offset="1" stop-color="#1A74E8"/>
</linearGradient>
<clipPath id="clip0_66_4880">
<rect width="87" height="87" fill="white"/>
</clipPath>
</defs>
</svg>
