<svg width="42" height="42" viewBox="0 0 42 42" fill="none" xmlns="http://www.w3.org/2000/svg">
<path d="M37.5048 10.8757C36.28 11.4041 34.9472 11.7843 33.5743 11.9324C34.9997 11.0856 36.0671 9.74779 36.5762 8.16997C35.2387 8.96564 33.7734 9.52358 32.2454 9.81904C31.6068 9.1363 30.8344 8.5924 29.9764 8.22123C29.1183 7.85006 28.193 7.65957 27.2582 7.66164C23.4757 7.66164 20.4338 10.7276 20.4338 14.4901C20.4338 15.0184 20.4978 15.5468 20.6019 16.0551C14.9382 15.7589 9.88691 13.0531 6.52873 8.91045C5.91683 9.95559 5.59618 11.1456 5.60013 12.3567C5.60013 14.7262 6.80491 16.8156 8.6421 18.0444C7.55942 18.0017 6.50208 17.7041 5.5561 17.1758V17.2599C5.5561 20.578 7.90162 23.3278 11.0276 23.9602C10.4407 24.1127 9.8369 24.1907 9.23048 24.1924C8.78619 24.1924 8.36592 24.1483 7.94165 24.0883C8.80621 26.7941 11.3238 28.7593 14.3218 28.8234C11.9763 30.6606 9.03836 31.7413 5.84829 31.7413C5.27592 31.7413 4.74757 31.7213 4.19922 31.6572C7.22518 33.5985 10.8155 34.7192 14.682 34.7192C27.2342 34.7192 34.1026 24.3204 34.1026 15.2946C34.1026 14.9984 34.1026 14.7022 34.0826 14.406C35.4115 13.4334 36.5762 12.2286 37.5048 10.8757Z" fill="#EF2779"/>
</svg>
