<svg width="123" height="123" viewBox="0 0 123 123" fill="none" xmlns="http://www.w3.org/2000/svg">
<g id="logos:apiary" clip-path="url(#clip0_66_4828)">
<path id="Vector" opacity="0.5" d="M61.3516 17.5083V52.4517L91.7786 34.9439V0L61.3516 17.5083Z" fill="#13A049"/>
<path id="Vector_2" opacity="0.5" d="M61.3524 17.5083L30.9258 0V35.0165L61.3524 52.5248V17.5083Z" fill="#A2CC39"/>
<path id="Vector_3" opacity="0.9" d="M91.7808 0L61.3537 17.5083L30.9271 0L0.5 17.5083L61.3537 52.5248L122.171 17.5083L91.7808 0Z" fill="url(#paint0_linear_66_4828)"/>
<path id="Vector_4" d="M61.3537 52.5248L0.5 17.5083V52.5248L30.9271 70.0331V105.014L61.3537 122.522L91.7808 105.014V70.0331L122.171 52.5248V17.5083L61.3537 52.5248Z" fill="url(#paint1_linear_66_4828)"/>
<path id="Vector_5" d="M61.3516 52.5248V122.522L91.7786 105.014V70.0331L122.169 52.5248V17.5083L61.3516 52.5248Z" fill="url(#paint2_linear_66_4828)"/>
<path id="Vector_6" opacity="0.05" d="M61.3516 87.5054V122.522L91.7786 105.014L61.3516 87.5054Z" fill="#231F20"/>
<path id="Vector_7" opacity="0.1" d="M61.3524 122.594V87.5776L30.9258 105.086L61.3524 122.594Z" fill="#231F20"/>
<path id="Vector_8" opacity="0.05" d="M30.9271 35.0166L0.5 52.5249L30.9271 70.0331L61.3537 52.5249L30.9271 35.0166Z" fill="#231F20"/>
<path id="Vector_9" opacity="0.05" d="M91.7786 35.0166L61.3516 52.5249L91.7786 70.0331L122.169 52.5249L91.7786 35.0166Z" fill="#231F20"/>
</g>
<defs>
<linearGradient id="paint0_linear_66_4828" x1="122.186" y1="26.2577" x2="0.5" y2="26.2577" gradientUnits="userSpaceOnUse">
<stop stop-color="#37BDA6"/>
<stop offset="1" stop-color="#8AD3B8"/>
</linearGradient>
<linearGradient id="paint1_linear_66_4828" x1="122.186" y1="70.013" x2="0.5" y2="70.013" gradientUnits="userSpaceOnUse">
<stop offset="0.5" stop-color="#4BB6AD"/>
<stop offset="1" stop-color="#78BBC1"/>
</linearGradient>
<linearGradient id="paint2_linear_66_4828" x1="61.3406" y1="70.013" x2="122.183" y2="70.013" gradientUnits="userSpaceOnUse">
<stop stop-color="#4379A7"/>
<stop offset="1" stop-color="#7CC9B8"/>
</linearGradient>
<clipPath id="clip0_66_4828">
<rect width="122" height="123" fill="white" transform="translate(0.5)"/>
</clipPath>
</defs>
</svg>
