<svg width="99" height="117" viewBox="0 0 99 117" fill="none" xmlns="http://www.w3.org/2000/svg">
<g id="logos:android-icon" clip-path="url(#clip0_66_4843)">
<path id="Vector" d="M30.3145 0.830722C29.7478 0.83436 29.1909 0.978594 28.6941 1.2504C27.063 2.15143 26.4647 4.23981 27.3685 5.8642L31.0512 12.4912C22.1783 17.9617 16.299 27.3065 16.299 37.9719V39.9536C14.5948 37.9997 12.09 36.7661 9.2913 36.7661C4.16341 36.7661 0 40.9151 0 46.0249V74.5466C0 79.656 4.1638 83.8054 9.2913 83.8054C12.09 83.8054 14.5948 82.5714 16.2986 80.6175V84.6128C16.2986 89.9993 20.7215 94.4065 26.1267 94.4065H28.6203V107.094C28.6203 112.205 32.7841 116.354 37.9116 116.354C43.0391 116.354 47.2025 112.204 47.2025 107.094V94.4065H51.5167V107.094C51.5167 112.205 55.6805 116.354 60.808 116.354C65.9355 116.354 70.099 112.204 70.099 107.094V94.4065H72.5929C77.9977 94.4065 82.4206 89.9993 82.4206 84.6128V80.6175C84.1245 82.5714 86.6296 83.8054 89.4283 83.8054C94.5558 83.8054 98.7192 79.656 98.7192 74.5466V46.0249C98.7192 40.9151 94.5558 36.7661 89.4283 36.7661C86.6296 36.7661 84.1245 37.9997 82.4206 39.9536V38.3072V38.2128C82.4214 38.1126 82.4206 38.0324 82.4206 37.9719C82.4206 27.3084 76.5278 17.9729 67.658 12.502L71.3512 5.8642C72.2545 4.23981 71.6567 2.15143 70.0255 1.2504C69.5287 0.978594 68.9718 0.83436 68.4051 0.830722C67.2005 0.819161 66.0183 1.45196 65.3957 2.57149L61.5339 9.52379C57.758 8.13526 53.6495 7.37413 49.36 7.37413C45.0744 7.37413 40.9582 8.12716 37.1853 9.513L33.3239 2.57149C32.7009 1.45196 31.5191 0.819931 30.3145 0.830722Z" fill="white"/>
<path id="Vector_2" d="M9.29271 39.1777C5.46651 39.1777 2.42188 42.2118 2.42188 46.0248V74.5466C2.42188 78.3595 5.46651 81.3936 9.29271 81.3936C13.1189 81.3936 16.1639 78.3595 16.1639 74.5466V46.0248C16.1639 42.2118 13.1189 39.1777 9.29271 39.1777ZM89.4301 39.1777C85.6035 39.1777 82.5589 42.2118 82.5589 46.0248V74.5466C82.5589 78.3595 85.6035 81.3936 89.4301 81.3936C93.2563 81.3936 96.3009 78.3595 96.3009 74.5466V46.0248C96.3009 42.2118 93.2563 39.1777 89.4301 39.1777Z" fill="#A4C639"/>
<path id="Vector_3" d="M37.9103 71.7256C34.0841 71.7256 31.0391 74.7597 31.0391 78.5731V107.094C31.0391 110.907 34.0841 113.942 37.9103 113.942C41.7365 113.942 44.7811 110.907 44.7811 107.094V78.5731C44.7811 74.7597 41.7365 71.7256 37.9103 71.7256ZM60.8067 71.7256C56.9802 71.7256 53.9355 74.7597 53.9355 78.5731V107.094C53.9355 110.907 56.9802 113.942 60.8067 113.942C64.6329 113.942 67.6776 110.907 67.6776 107.094V78.5731C67.6776 74.7597 64.6329 71.7256 60.8067 71.7256Z" fill="#A4C639"/>
<path id="Vector_4" d="M30.335 3.24281C30.1725 3.24476 30.0132 3.288 29.8721 3.36845C29.3822 3.63898 29.2213 4.2001 29.4931 4.68953L34.3337 13.4034C25.0215 18.2322 18.7311 27.4086 18.7188 37.9403H80.0001C79.9874 27.4086 73.6974 18.2319 64.3852 13.4034L69.2254 4.68992C69.4976 4.20048 69.3364 3.63898 68.8464 3.36845C68.7054 3.28796 68.546 3.24471 68.3835 3.24281C68.0355 3.23896 67.7064 3.41238 67.5207 3.74612L62.6171 12.554C58.6061 10.7813 54.107 9.78583 49.3593 9.78583C44.6115 9.78583 40.1128 10.7809 36.1014 12.554L31.1978 3.74612C31.1142 3.59151 30.9895 3.46278 30.8374 3.37402C30.6853 3.28525 30.5116 3.23986 30.3354 3.24281H30.335ZM18.7188 40.352V84.6131C18.7167 85.5831 18.9069 86.544 19.2784 87.4405C19.6499 88.337 20.1955 89.1516 20.8838 89.8375C21.572 90.5234 22.3895 91.067 23.2892 91.4372C24.1888 91.8074 25.153 91.9969 26.1264 91.9947H72.5926C73.5659 91.9969 74.5302 91.8074 75.4299 91.4372C76.3295 91.0669 77.147 90.5233 77.8353 89.8374C78.5236 89.1515 79.0691 88.3368 79.4406 87.4402C79.8121 86.5436 80.0023 85.5828 80.0001 84.6127V40.3524H18.7188V40.352Z" fill="#A4C639"/>
<path id="Vector_5" d="M35.2171 21.6663C33.8184 21.6663 32.6602 22.8201 32.6602 24.214C32.6602 25.6083 33.8184 26.7622 35.2171 26.7622C36.6163 26.7622 37.7741 25.6083 37.7741 24.214C37.7741 22.8201 36.6163 21.6663 35.2171 21.6663ZM63.501 21.6663C62.1018 21.6663 60.944 22.8201 60.944 24.214C60.944 25.6083 62.1018 26.7622 63.501 26.7622C64.8997 26.7622 66.0579 25.6083 66.0579 24.214C66.0579 22.8201 64.8997 21.6663 63.501 21.6663Z" fill="white"/>
</g>
<defs>
<clipPath id="clip0_66_4843">
<rect width="99" height="116" fill="white" transform="translate(0 0.5)"/>
</clipPath>
</defs>
</svg>
