<svg width="42" height="42" viewBox="0 0 42 42" fill="none" xmlns="http://www.w3.org/2000/svg">
<path d="M35.5564 5.18018H6.09724C5.38878 5.18018 4.81641 5.75255 4.81641 6.46101V35.9201C4.81641 36.6286 5.38878 37.201 6.09724 37.201H35.5564C36.2648 37.201 36.8372 36.6286 36.8372 35.9201V6.46101C36.8372 5.75255 36.2648 5.18018 35.5564 5.18018ZM14.3146 32.4659H9.56349V17.184H14.3146V32.4659ZM11.941 15.0946C11.3964 15.0946 10.864 14.9331 10.4111 14.6305C9.95825 14.3279 9.60529 13.8978 9.39686 13.3947C9.18843 12.8915 9.1339 12.3378 9.24016 11.8036C9.34641 11.2694 9.60868 10.7787 9.99381 10.3936C10.3789 10.0085 10.8696 9.7462 11.4038 9.63995C11.938 9.53369 12.4917 9.58823 12.9949 9.79665C13.498 10.0051 13.9281 10.358 14.2307 10.8109C14.5333 11.2638 14.6948 11.7962 14.6948 12.3408C14.6908 13.8618 13.458 15.0946 11.941 15.0946ZM32.1021 32.4659H27.355V25.0331C27.355 23.2599 27.323 20.9824 24.8854 20.9824C22.4158 20.9824 22.0356 22.9117 22.0356 24.905V32.4659H17.2925V17.184H21.8475V19.2733H21.9115C22.5439 18.0725 24.0929 16.8037 26.4064 16.8037C31.2175 16.8037 32.1021 19.9698 32.1021 24.0844V32.4659Z" fill="#EF2779"/>
</svg>
